<?xml version="1.0" standalone="no"?>
<!DOCTYPE svg PUBLIC "-//W3C//DTD SVG 20010904//EN"
 "http://www.w3.org/TR/2001/REC-SVG-20010904/DTD/svg10.dtd">
<svg version="1.0" xmlns="http://www.w3.org/2000/svg"
 width="2400.000000pt" height="2400.000000pt" viewBox="0 0 2400.000000 2400.000000"
 preserveAspectRatio="xMidYMid meet">
<metadata>
Created by potrace 1.11, written by Peter Selinger 2001-2013
</metadata>
<g transform="translate(0.000000,2400.000000) scale(0.100000,-0.100000)"
fill="#000000" stroke="none">
<path d="M11949 22313 c-24 -42 -56 -99 -71 -125 -15 -27 -70 -121 -122 -211
-51 -89 -103 -178 -114 -197 -27 -48 -295 -511 -367 -635 -32 -55 -124 -215
-205 -355 -80 -140 -182 -316 -225 -390 -43 -74 -129 -223 -190 -330 -62 -107
-136 -235 -165 -285 -29 -49 -61 -106 -72 -125 -11 -19 -37 -64 -58 -100 -21
-36 -47 -81 -57 -100 -20 -35 -251 -435 -460 -795 -60 -104 -121 -210 -135
-235 -14 -25 -117 -202 -228 -395 -112 -192 -213 -368 -225 -390 -13 -22 -47
-80 -76 -130 -28 -49 -62 -107 -73 -127 -12 -20 -118 -205 -236 -409 -118
-205 -227 -393 -241 -418 -15 -25 -244 -422 -509 -881 -265 -459 -491 -850
-501 -868 -11 -18 -54 -93 -96 -165 -126 -218 -214 -370 -238 -412 -40 -71
-282 -489 -304 -525 -11 -19 -24 -42 -28 -50 -4 -8 -34 -62 -68 -120 -34 -58
-124 -213 -200 -345 -76 -132 -147 -252 -157 -267 -11 -16 -16 -28 -12 -28 4
0 0 -8 -8 -17 -8 -10 -27 -40 -43 -68 -15 -27 -51 -90 -80 -140 -29 -49 -238
-412 -465 -805 -226 -393 -427 -740 -445 -770 -18 -30 -42 -72 -54 -93 -12
-21 -56 -98 -98 -170 -42 -73 -83 -145 -93 -162 -28 -50 -166 -288 -189 -325
-11 -19 -24 -42 -28 -50 -4 -8 -51 -90 -104 -181 -53 -91 -108 -186 -121 -210
-13 -24 -36 -63 -51 -86 -15 -24 -27 -45 -27 -47 0 -3 -25 -46 -55 -96 -30
-50 -55 -93 -55 -95 0 -3 -17 -33 -38 -67 -21 -35 -41 -70 -45 -78 -4 -8 -17
-31 -29 -50 -12 -19 -31 -53 -43 -75 -12 -22 -69 -121 -127 -220 -57 -99 -151
-261 -208 -360 -57 -99 -122 -211 -145 -250 -23 -38 -55 -95 -72 -125 -17 -30
-70 -122 -118 -205 -48 -82 -101 -175 -118 -205 -16 -30 -36 -62 -43 -71 -8
-8 -14 -18 -14 -21 0 -3 -106 -190 -237 -414 -247 -428 -273 -473 -296 -514
-13 -25 -107 -187 -320 -555 -61 -104 -118 -203 -127 -220 -10 -16 -125 -217
-257 -445 -132 -228 -293 -507 -358 -620 -65 -113 -174 -301 -242 -418 -67
-117 -123 -217 -123 -222 0 -4 -3 -10 -7 -12 -5 -1 -17 -20 -28 -40 -11 -20
-56 -99 -100 -175 -44 -76 -82 -142 -84 -148 -2 -5 -12 -21 -21 -35 -10 -14
-28 -43 -40 -65 -13 -22 -33 -58 -46 -80 -12 -23 -70 -123 -128 -224 -58 -101
-106 -185 -106 -187 0 -1 -13 -23 -30 -47 -16 -25 -30 -47 -30 -50 0 -4 -98
-177 -129 -227 -6 -8 -34 -58 -64 -110 -110 -192 -482 -835 -498 -860 -49 -79
-329 -574 -329 -581 0 -5 4617 -9 11996 -9 11338 0 11996 1 11990 17 -4 10
-59 108 -123 218 -64 110 -124 214 -133 230 -16 28 -197 342 -280 485 -21 36
-70 121 -110 190 -40 69 -96 166 -125 215 -29 50 -64 110 -77 135 -27 47 -231
400 -267 460 -11 19 -29 51 -39 70 -10 19 -34 60 -52 90 -33 55 -52 89 -91
158 -12 20 -38 66 -59 102 -21 36 -47 81 -58 100 -40 71 -343 595 -352 610 -9
14 -53 92 -118 205 -16 28 -62 106 -102 175 -40 69 -83 142 -94 162 -12 20
-50 88 -86 150 -36 62 -79 138 -96 168 -18 30 -96 165 -174 300 -78 135 -152
263 -165 285 -12 22 -107 186 -210 365 -104 179 -197 341 -208 360 -11 19 -28
49 -38 65 -11 17 -22 37 -26 45 -4 8 -33 59 -65 113 -32 54 -58 100 -58 102 0
2 -28 51 -90 155 -29 50 -317 549 -326 566 -6 11 -31 54 -56 95 -24 41 -48 81
-51 89 -4 8 -17 31 -28 50 -54 88 -199 342 -199 346 0 3 -8 17 -19 32 -14 21
-320 548 -419 722 -11 19 -43 76 -72 125 -57 98 -80 138 -109 188 -95 168
-117 207 -136 237 -13 19 -53 89 -91 155 -37 66 -106 185 -152 265 -47 80 -94
161 -104 180 -10 19 -27 49 -37 65 -10 17 -54 93 -98 170 -44 77 -104 181
-133 230 -50 86 -66 112 -109 188 -43 76 -441 765 -521 902 -48 83 -98 170
-112 195 -14 25 -48 82 -74 128 -63 107 -59 100 -129 222 -33 58 -64 112 -70
122 -5 9 -26 45 -46 80 -19 34 -120 209 -224 388 -103 179 -196 339 -205 355
-9 17 -43 75 -75 130 -50 85 -93 160 -225 390 -9 17 -59 102 -110 190 -51 88
-106 185 -123 215 -16 30 -38 67 -49 82 -10 14 -18 29 -18 33 0 4 -8 19 -19
33 -10 15 -31 50 -45 77 -15 28 -35 62 -44 77 -14 23 -120 207 -158 273 -6 11
-35 61 -64 110 -29 50 -64 110 -77 135 -14 25 -29 50 -33 55 -4 6 -19 30 -32
55 -29 51 -239 416 -378 655 -51 88 -101 175 -111 193 -69 120 -106 185 -189
327 -51 88 -100 174 -110 190 -9 17 -68 118 -130 225 -62 107 -123 213 -136
235 -39 71 -166 289 -185 320 -10 17 -22 36 -26 44 -3 8 -51 90 -105 183 -54
93 -98 171 -98 173 0 2 -31 56 -70 121 -38 64 -70 118 -70 119 0 3 -157 276
-170 295 -6 8 -13 22 -17 30 -4 8 -16 31 -28 50 -22 35 -190 326 -237 410 -14
25 -97 169 -185 320 -88 151 -222 383 -297 515 -76 132 -149 257 -162 277 -13
21 -24 39 -24 42 0 2 -37 66 -81 142 -45 77 -90 155 -101 174 -11 19 -53 91
-93 160 -39 69 -83 145 -97 170 -31 56 -345 600 -358 620 -9 15 -98 168 -132
228 -31 56 -53 93 -148 257 -51 88 -104 180 -118 205 -13 25 -28 50 -32 55 -8
11 -147 251 -188 325 -14 25 -26 46 -26 47 -1 2 -22 -32 -47 -74z m143 -3103
c53 -91 104 -181 115 -200 11 -20 53 -92 93 -160 40 -69 82 -141 93 -160 10
-19 36 -64 57 -100 21 -36 47 -81 57 -100 11 -19 76 -132 145 -250 69 -118
186 -321 260 -450 75 -129 227 -392 338 -585 111 -192 211 -366 222 -385 11
-19 27 -48 37 -65 20 -33 136 -235 158 -275 8 -14 22 -38 32 -55 29 -49 156
-266 183 -315 14 -25 65 -112 113 -195 48 -82 97 -168 110 -190 12 -22 58
-103 103 -179 45 -76 82 -141 82 -143 0 -2 11 -20 23 -41 13 -20 35 -57 49
-82 14 -25 49 -85 78 -135 29 -49 66 -115 83 -145 17 -30 48 -84 69 -119 21
-34 38 -67 38 -72 0 -5 5 -9 10 -9 6 0 10 -5 10 -11 0 -6 35 -70 77 -142 42
-73 82 -141 88 -152 5 -11 17 -31 26 -45 9 -14 81 -137 159 -275 79 -137 206
-357 282 -488 76 -131 138 -241 138 -245 0 -3 6 -13 14 -21 7 -9 27 -41 43
-71 45 -82 85 -151 173 -300 34 -56 178 -308 183 -320 4 -8 17 -31 28 -50 12
-19 64 -109 117 -200 52 -91 104 -177 114 -192 11 -16 16 -28 12 -28 -4 0 0
-8 8 -17 8 -10 70 -115 137 -233 68 -118 132 -227 142 -242 11 -15 19 -29 19
-32 0 -3 29 -55 65 -116 36 -61 65 -113 65 -116 0 -3 8 -17 19 -32 10 -15 65
-108 122 -207 56 -99 159 -277 227 -395 69 -118 136 -235 150 -259 14 -25 38
-68 55 -95 16 -28 39 -67 50 -86 18 -33 170 -296 302 -525 320 -553 581 -1006
597 -1035 11 -19 27 -47 36 -62 9 -15 80 -137 156 -270 77 -134 158 -274 181
-313 23 -38 156 -268 295 -510 139 -242 260 -451 269 -465 8 -14 21 -34 27
-45 27 -50 183 -323 203 -355 35 -56 177 -307 179 -317 2 -7 8 -13 13 -13 5 0
9 -4 9 -9 0 -5 73 -134 162 -287 88 -154 178 -308 198 -344 36 -65 226 -394
303 -525 23 -38 50 -86 61 -105 10 -19 50 -89 89 -155 38 -66 129 -223 202
-350 73 -126 153 -265 179 -308 25 -43 46 -81 46 -83 0 -3 16 -30 35 -60 19
-30 35 -56 35 -59 0 -3 17 -33 38 -67 21 -35 50 -83 64 -108 14 -25 94 -164
178 -310 84 -146 164 -285 178 -310 14 -25 36 -62 49 -82 12 -21 23 -39 23
-41 0 -2 27 -48 59 -103 33 -54 56 -101 51 -104 -4 -3 -4231 -5 -9392 -5
-7683 1 -9382 3 -9380 14 1 7 41 78 87 157 47 80 85 147 85 150 0 3 8 17 19
32 16 22 206 351 274 472 23 41 189 328 260 450 28 47 60 103 72 125 19 35
177 309 233 405 21 35 57 97 104 180 14 25 49 86 78 135 29 50 64 111 79 136
84 146 193 336 201 349 12 20 102 175 127 220 11 19 46 80 78 135 32 55 80
138 107 185 27 47 53 92 58 100 6 8 66 112 133 230 68 118 150 260 182 315 32
55 67 116 78 135 11 19 28 49 38 65 11 17 22 37 26 45 3 8 25 47 48 85 24 39
52 88 64 110 12 22 30 55 41 73 24 40 245 421 274 474 27 46 137 237 153 263
7 11 16 27 20 35 4 8 26 47 48 85 23 39 113 194 200 345 87 151 173 300 190
330 30 51 121 209 167 290 11 19 87 150 168 290 160 276 162 280 242 420 30
52 66 114 81 137 15 24 27 44 27 47 0 2 30 55 66 117 37 63 74 128 84 144 38
67 211 367 274 474 36 62 66 115 66 117 0 3 11 23 26 45 14 22 34 56 45 75 51
91 63 112 299 519 111 193 212 368 225 390 12 22 54 94 92 160 75 129 398 687
431 745 11 19 70 123 132 230 222 383 250 432 250 438 0 3 6 13 14 21 7 9 27
41 44 72 16 32 37 68 45 80 8 13 27 44 41 69 90 158 160 280 177 308 23 40
816 1412 859 1487 9 17 61 107 115 200 54 94 147 256 207 360 61 105 127 219
148 255 56 96 217 373 238 412 81 144 329 569 346 593 11 17 19 30 17 30 -3 0
2 11 11 25 42 69 78 131 78 135 0 3 11 22 23 43 20 30 250 429 316 545 10 18
39 68 66 112 26 44 60 103 75 130 26 47 300 522 463 802 39 67 72 121 72 120
1 -1 45 -76 97 -167z"/>
</g>
</svg>
